<svg id="Layer_1" data-name="Layer 1" xmlns="http://www.w3.org/2000/svg" viewBox="0 0 96.6 133.02"><defs><style>.cls-1{fill:#fff;}</style></defs><title>noun_Water_2723321</title><path class="cls-1" d="M48.23,133a50.22,50.22,0,0,1-10.72-1.17A47.81,47.81,0,0,1,1.69,97.55a48.63,48.63,0,0,1,7.39-41L48.23,0,85.5,51.86c7.39,11.83,11.1,22.75,11.1,32.87A48.29,48.29,0,0,1,48.29,133ZM48.32,17.1,17.18,62.21A38.89,38.89,0,0,0,11.26,95a37.93,37.93,0,0,0,28.35,27.21,38.93,38.93,0,0,0,32.8-7.55A38.36,38.36,0,0,0,86.75,84.73c0-8.24-3.17-17.45-9.42-27.37Z"/><ellipse class="cls-1" cx="39.23" cy="70.14" rx="4.8" ry="10.82"/><ellipse class="cls-1" cx="58.11" cy="70.14" rx="4.8" ry="10.82"/><path class="cls-1" d="M48.3,115.54A26.24,26.24,0,0,1,23.19,96.65a4,4,0,1,1,7.68-2.21,18.14,18.14,0,0,0,34.86,0,4,4,0,1,1,7.69,2.2A26.24,26.24,0,0,1,48.3,115.54Z"/></svg>