<svg xmlns="http://www.w3.org/2000/svg" width="350.476" height="482.543" viewBox="0 0 350.476 482.543">
  <g id="LOGO" transform="translate(-0.001)">
    <path id="Path_1" data-name="Path 1" d="M174.984,482.543A182.207,182.207,0,0,1,136.09,478.3,173.462,173.462,0,0,1,6.13,353.925,176.437,176.437,0,0,1,32.942,205.171L174.984,0,310.2,188.155c26.812,42.921,40.272,82.54,40.272,119.257A175.2,175.2,0,0,1,175.2,482.543Zm.327-420.5L62.33,225.707A141.1,141.1,0,0,0,40.851,344.674,137.615,137.615,0,0,0,143.709,443.4a141.243,141.243,0,0,0,119-27.392,139.175,139.175,0,0,0,52.028-108.59c0-29.9-11.5-63.311-34.177-99.3Z" transform="translate(0)" fill="#fff"/>
    <ellipse id="Ellipse_1" data-name="Ellipse 1" cx="17.415" cy="39.257" rx="17.415" ry="39.257" transform="translate(124.915 215.221)" fill="#fff"/>
    <ellipse id="Ellipse_2" data-name="Ellipse 2" cx="17.415" cy="39.257" rx="17.415" ry="39.257" transform="translate(193.415 215.221)" fill="#fff"/>
    <path id="Path_2" data-name="Path 2" d="M114.846,179.064a95.2,95.2,0,0,1-91.1-68.536,14.513,14.513,0,1,1,27.864-8.018,65.815,65.815,0,0,0,126.477,0,14.511,14.511,0,1,1,27.9,7.983,95.2,95.2,0,0,1-91.142,68.571Z" transform="translate(60.391 240.132)" fill="#fff"/>
  </g>
</svg>
