<svg xmlns="http://www.w3.org/2000/svg" xmlns:xlink="http://www.w3.org/1999/xlink" version="1.1" x="0px" y="0px" viewBox="0 0 100 125" enable-background="new 0 0 100 100" xml:space="preserve"><g><g><g><path d="M50.393,80.284c-11.65,0-21.129-9.479-21.129-21.129c0-4.002,1.117-7.885,3.229-11.228l0.006,0.003     c0.529-0.965,2.943-5.161,14.701-25.531c0.66-1.155,1.855-1.848,3.191-1.848c1.334,0,2.529,0.69,3.197,1.847     C65.396,42.86,67.777,46.999,68.289,47.93l0.006-0.002c2.111,3.343,3.229,7.226,3.229,11.228     C71.523,70.805,62.045,80.284,50.393,80.284z M35.141,49.332l-0.111,0.196c-1.809,2.864-2.766,6.192-2.766,9.626     c0,9.996,8.133,18.129,18.129,18.129c9.998,0,18.131-8.133,18.131-18.129c0-3.434-0.957-6.763-2.766-9.626l-0.105-0.185     c-0.797-1.41-9.852-17.106-14.662-25.444c-0.176-0.303-0.451-0.348-0.6-0.348s-0.42,0.044-0.592,0.343     C44.996,32.215,35.971,47.862,35.141,49.332z"/></g></g></g><text x="0" y="115" fill="#000000" font-size="5px" font-weight="bold" font-family="'Helvetica Neue', Helvetica, Arial-Unicode, Arial, Sans-serif">Created by b a r z i n</text><text x="0" y="120" fill="#000000" font-size="5px" font-weight="bold" font-family="'Helvetica Neue', Helvetica, Arial-Unicode, Arial, Sans-serif">from the Noun Project</text></svg>