<svg xmlns="http://www.w3.org/2000/svg" width="357.526" height="492.115" viewBox="0 0 357.526 492.115">
  <g id="TRIPPY_LOGO" data-name="TRIPPY LOGO" transform="translate(-781.45 -292.385)">
    <g id="noun_Water_2723321" transform="translate(784.999 298.457)">
      <path id="Path_1" data-name="Path 1" d="M174.984,482.543A182.207,182.207,0,0,1,136.09,478.3,173.462,173.462,0,0,1,6.13,353.925,176.437,176.437,0,0,1,32.942,205.171L174.984,0,310.2,188.155c26.812,42.921,40.272,82.54,40.272,119.257A175.2,175.2,0,0,1,175.2,482.543Zm.327-420.5L62.33,225.707A141.1,141.1,0,0,0,40.851,344.674,137.615,137.615,0,0,0,143.709,443.4a141.243,141.243,0,0,0,119-27.392,139.175,139.175,0,0,0,52.028-108.59c0-29.9-11.5-63.311-34.177-99.3Z" transform="translate(0)" fill="#fff"/>
      <ellipse id="Ellipse_1" data-name="Ellipse 1" cx="17.415" cy="39.257" rx="17.415" ry="39.257" transform="translate(124.915 215.221)" fill="#fff"/>
      <ellipse id="Ellipse_2" data-name="Ellipse 2" cx="17.415" cy="39.257" rx="17.415" ry="39.257" transform="translate(193.415 215.221)" fill="#fff"/>
      <path id="Path_2" data-name="Path 2" d="M114.846,179.064a95.2,95.2,0,0,1-91.1-68.536,14.513,14.513,0,1,1,27.864-8.018,65.815,65.815,0,0,0,126.477,0,14.511,14.511,0,1,1,27.9,7.983,95.2,95.2,0,0,1-91.142,68.571Z" transform="translate(60.391 240.132)" fill="#fff"/>
    </g>
    <g id="noun_Water_2723321-2" data-name="noun_Water_2723321" transform="translate(808.53 330.855)">
      <path id="Path_1-2" data-name="Path 1" d="M151.487,417.747a157.739,157.739,0,0,1-33.671-3.675A150.169,150.169,0,0,1,5.307,306.4,152.745,152.745,0,0,1,28.518,177.621L151.487,0,268.55,162.89c23.212,37.158,34.865,71.457,34.865,103.243a151.677,151.677,0,0,1-151.74,151.614ZM151.77,53.71,53.96,195.4A122.152,122.152,0,0,0,35.366,298.391a119.136,119.136,0,0,0,89.046,85.465,122.277,122.277,0,0,0,103.023-23.714,120.487,120.487,0,0,0,45.041-94.009c0-25.881-9.957-54.81-29.588-85.968Z" transform="translate(0)" fill="#030303"/>
      <ellipse id="Ellipse_1-2" data-name="Ellipse 1" cx="15.077" cy="33.985" rx="15.077" ry="33.985" transform="translate(108.142 186.321)" fill="#030303"/>
      <ellipse id="Ellipse_2-2" data-name="Ellipse 2" cx="15.077" cy="33.985" rx="15.077" ry="33.985" transform="translate(167.443 186.321)" fill="#030303"/>
      <path id="Path_2-2" data-name="Path 2" d="M102.51,167.288a82.419,82.419,0,0,1-78.869-59.333,12.564,12.564,0,1,1,24.123-6.942,56.977,56.977,0,0,0,109.494,0,12.563,12.563,0,1,1,24.156,6.911,82.419,82.419,0,0,1-78.9,59.363Z" transform="translate(49.196 195.618)" fill="#030303"/>
    </g>
    <g id="noun_Water_2723321-3" data-name="noun_Water_2723321" transform="translate(831.806 362.901)">
      <path id="Path_1-3" data-name="Path 1" d="M128.246,353.656a133.539,133.539,0,0,1-28.505-3.111A127.13,127.13,0,0,1,4.493,259.392,129.31,129.31,0,0,1,24.143,150.37L128.246,0l99.1,137.9c19.651,31.457,29.516,60.494,29.516,87.4A128.406,128.406,0,0,1,128.405,353.656Zm.239-308.186-82.8,119.95A103.411,103.411,0,0,0,29.94,252.611a100.858,100.858,0,0,0,75.385,72.353,103.517,103.517,0,0,0,87.217-20.076A102,102,0,0,0,230.673,225.3c0-21.911-8.429-46.4-25.048-72.779Z" transform="translate(0)" fill="#fff"/>
      <ellipse id="Ellipse_1-3" data-name="Ellipse 1" cx="12.764" cy="28.771" rx="12.764" ry="28.771" transform="translate(91.551 157.736)" fill="#fff"/>
      <ellipse id="Ellipse_2-3" data-name="Ellipse 2" cx="12.764" cy="28.771" rx="12.764" ry="28.771" transform="translate(141.754 157.736)" fill="#fff"/>
      <path id="Path_2-3" data-name="Path 2" d="M90.309,155.641a69.774,69.774,0,0,1-66.769-50.23,10.636,10.636,0,1,1,20.422-5.877,48.235,48.235,0,0,0,92.7,0,10.635,10.635,0,1,1,20.45,5.851,69.774,69.774,0,0,1-66.8,50.256Z" transform="translate(38.123 151.588)" fill="#fff"/>
    </g>
    <g id="noun_Water_2723321-4" data-name="noun_Water_2723321" transform="translate(848.132 385.379)">
      <path id="Path_1-4" data-name="Path 1" d="M111.943,308.7a116.563,116.563,0,0,1-24.882-2.716,110.97,110.97,0,0,1-83.14-79.566,112.873,112.873,0,0,1,17.153-95.163L111.943,0l86.505,120.37c17.153,27.458,25.764,52.8,25.764,76.293A112.084,112.084,0,0,1,112.083,308.7Zm.209-269.01-72.277,104.7A90.266,90.266,0,0,0,26.134,220.5a88.037,88.037,0,0,0,65.8,63.156,90.358,90.358,0,0,0,76.13-17.524,89.035,89.035,0,0,0,33.284-69.469c0-19.125-7.358-40.5-21.864-63.527Z" transform="translate(0)" fill="#030303"/>
      <ellipse id="Ellipse_1-4" data-name="Ellipse 1" cx="11.141" cy="25.114" rx="11.141" ry="25.114" transform="translate(79.913 137.685)" fill="#030303"/>
      <ellipse id="Ellipse_2-4" data-name="Ellipse 2" cx="11.141" cy="25.114" rx="11.141" ry="25.114" transform="translate(123.734 137.685)" fill="#030303"/>
      <path id="Path_2-4" data-name="Path 2" d="M81.75,147.471a60.9,60.9,0,0,1-58.282-43.845A9.284,9.284,0,1,1,41.294,98.5a42.1,42.1,0,0,0,80.912,0,9.283,9.283,0,1,1,17.851,5.107A60.9,60.9,0,0,1,81.75,147.471Z" transform="translate(30.356 120.703)" fill="#030303"/>
    </g>
    <g id="noun_Water_2723321-5" data-name="noun_Water_2723321" transform="translate(866.041 410.037)">
      <path id="Path_1-5" data-name="Path 1" d="M94.06,259.383A97.941,97.941,0,0,1,73.153,257.1,93.241,93.241,0,0,1,3.3,190.246a94.84,94.84,0,0,1,14.412-79.96L94.06,0l72.686,101.14c14.412,23.071,21.648,44.368,21.648,64.1a94.177,94.177,0,0,1-94.216,94.138Zm.176-226.033L33.5,121.325a75.845,75.845,0,0,0-11.545,63.949,73.973,73.973,0,0,0,55.289,53.066,75.923,75.923,0,0,0,63.968-14.724,74.811,74.811,0,0,0,27.967-58.371c0-16.07-6.182-34.032-18.371-53.378Z" transform="translate(0)" fill="#fffcfc"/>
      <ellipse id="Ellipse_1-5" data-name="Ellipse 1" cx="9.361" cy="21.102" rx="9.361" ry="21.102" transform="translate(67.146 115.689)" fill="#fffcfc"/>
      <ellipse id="Ellipse_2-5" data-name="Ellipse 2" cx="9.361" cy="21.102" rx="9.361" ry="21.102" transform="translate(103.967 115.689)" fill="#fffcfc"/>
      <path id="Path_2-5" data-name="Path 2" d="M72.361,138.508a51.174,51.174,0,0,1-48.971-36.84,7.8,7.8,0,1,1,14.978-4.31,35.377,35.377,0,0,0,67.986,0,7.8,7.8,0,1,1,15,4.291,51.174,51.174,0,0,1-48.992,36.859Z" transform="translate(21.835 86.823)" fill="#fffcfc"/>
    </g>
    <g id="noun_Water_2723321-6" data-name="noun_Water_2723321" transform="translate(877.662 426.037)">
      <path id="Path_1-6" data-name="Path 1" d="M82.456,227.383a85.858,85.858,0,0,1-18.327-2,81.738,81.738,0,0,1-61.24-58.607,83.14,83.14,0,0,1,12.634-70.1L82.456,0l63.719,88.662c12.634,20.225,18.977,38.895,18.977,56.2a82.559,82.559,0,0,1-82.593,82.525ZM82.61,29.235,29.371,106.357A66.488,66.488,0,0,0,19.25,162.417a64.847,64.847,0,0,0,48.469,46.52A66.556,66.556,0,0,0,123.8,196.028a65.582,65.582,0,0,0,24.516-51.17c0-14.088-5.42-29.833-16.1-46.793Z" transform="translate(0)" fill="#080808"/>
      <ellipse id="Ellipse_1-6" data-name="Ellipse 1" cx="8.206" cy="18.498" rx="8.206" ry="18.498" transform="translate(58.863 101.416)" fill="#080808"/>
      <ellipse id="Ellipse_2-6" data-name="Ellipse 2" cx="8.206" cy="18.498" rx="8.206" ry="18.498" transform="translate(91.141 101.416)" fill="#080808"/>
      <path id="Path_2-6" data-name="Path 2" d="M66.269,132.693a44.861,44.861,0,0,1-42.929-32.3,6.839,6.839,0,1,1,13.13-3.778,31.013,31.013,0,0,0,59.6,0,6.838,6.838,0,1,1,13.148,3.762A44.861,44.861,0,0,1,66.269,132.693Z" transform="translate(16.307 64.84)" fill="#080808"/>
    </g>
    <g id="noun_Water_2723321-7" data-name="noun_Water_2723321" transform="translate(890.411 443.59)">
      <path id="Path_1-7" data-name="Path 1" d="M69.725,192.277a72.6,72.6,0,0,1-15.5-1.691A69.119,69.119,0,0,1,2.443,141.027,70.3,70.3,0,0,1,13.127,81.754L69.725,0l53.881,74.974c10.684,17.1,16.047,32.889,16.047,47.52a69.813,69.813,0,0,1-69.841,69.784Zm.13-167.556L24.837,89.937a56.223,56.223,0,0,0-8.558,47.4,54.835,54.835,0,0,0,40.985,39.337,56.281,56.281,0,0,0,47.419-10.915,55.457,55.457,0,0,0,20.731-43.27c0-11.913-4.583-25.227-13.618-39.569Z" transform="translate(0)" fill="#fff"/>
      <ellipse id="Ellipse_1-7" data-name="Ellipse 1" cx="6.939" cy="15.642" rx="6.939" ry="15.642" transform="translate(49.775 85.758)" fill="#fff"/>
      <ellipse id="Ellipse_2-7" data-name="Ellipse 2" cx="6.939" cy="15.642" rx="6.939" ry="15.642" transform="translate(77.07 85.758)" fill="#fff"/>
      <path id="Path_2-7" data-name="Path 2" d="M59.585,126.313A37.935,37.935,0,0,1,23.284,99a5.783,5.783,0,1,1,11.1-3.195,26.225,26.225,0,0,0,50.4,0A5.782,5.782,0,1,1,95.9,98.989,37.935,37.935,0,0,1,59.585,126.313Z" transform="translate(10.241 40.723)" fill="#fff"/>
    </g>
    <g id="noun_Water_2723321-8" data-name="noun_Water_2723321" transform="translate(899.775 456.483)">
      <path id="Path_1-8" data-name="Path 1" d="M60.375,166.491a62.865,62.865,0,0,1-13.419-1.465,59.849,59.849,0,0,1-44.84-42.912A60.876,60.876,0,0,1,11.366,70.79L60.375,0,107.03,64.919c9.251,14.809,13.9,28.479,13.9,41.147A60.45,60.45,0,0,1,60.45,166.491Zm.113-145.085L21.506,77.875A48.683,48.683,0,0,0,14.1,118.922a47.481,47.481,0,0,0,35.489,34.062,48.733,48.733,0,0,0,41.059-9.451,48.019,48.019,0,0,0,17.951-37.467c0-10.315-3.968-21.844-11.792-34.262Z" transform="translate(0)"/>
      <ellipse id="Ellipse_1-8" data-name="Ellipse 1" cx="6.009" cy="13.545" rx="6.009" ry="13.545" transform="translate(43.1 74.257)"/>
      <ellipse id="Ellipse_2-8" data-name="Ellipse 2" cx="6.009" cy="13.545" rx="6.009" ry="13.545" transform="translate(66.734 74.257)"/>
      <path id="Path_2-8" data-name="Path 2" d="M54.676,121.626A32.848,32.848,0,0,1,23.243,97.98a5.007,5.007,0,1,1,9.614-2.767,22.708,22.708,0,0,0,43.638,0,5.007,5.007,0,1,1,9.627,2.754A32.848,32.848,0,0,1,54.676,121.626Z" transform="translate(5.786 23.008)"/>
    </g>
    <g id="noun_Water_2723321-9" data-name="noun_Water_2723321" transform="translate(908.764 468.858)">
      <path id="Path_1-9" data-name="Path 1" d="M51.4,141.74a53.52,53.52,0,0,1-11.424-1.247A50.952,50.952,0,0,1,1.8,103.961,51.826,51.826,0,0,1,9.677,60.266L51.4,0,91.119,55.268c7.876,12.607,11.829,24.245,11.829,35.03A51.464,51.464,0,0,1,51.463,141.74Zm.1-123.517L18.309,66.3A41.446,41.446,0,0,0,12,101.243a40.423,40.423,0,0,0,30.213,29A41.488,41.488,0,0,0,77.169,122.2,40.881,40.881,0,0,0,92.451,90.3c0-8.782-3.378-18.6-10.039-29.169Z" transform="translate(0)" fill="#fff"/>
      <ellipse id="Ellipse_1-9" data-name="Ellipse 1" cx="5.115" cy="11.531" rx="5.115" ry="11.531" transform="translate(36.693 63.218)" fill="#fff"/>
      <ellipse id="Ellipse_2-9" data-name="Ellipse 2" cx="5.115" cy="11.531" rx="5.115" ry="11.531" transform="translate(56.813 63.218)" fill="#fff"/>
      <path id="Path_2-9" data-name="Path 2" d="M49.964,117.128A27.964,27.964,0,0,1,23.2,97a4.263,4.263,0,1,1,8.185-2.355,19.332,19.332,0,0,0,37.151,0,4.262,4.262,0,1,1,8.2,2.345A27.964,27.964,0,0,1,49.964,117.128Z" transform="translate(1.51 6.005)" fill="#fff"/>
    </g>
    <g id="noun_Water_2723321-10" data-name="noun_Water_2723321" transform="translate(916.31 479.247)">
      <path id="Path_1-10" data-name="Path 1" d="M43.865,120.962a45.674,45.674,0,0,1-9.75-1.064A43.483,43.483,0,0,1,1.537,88.721,44.228,44.228,0,0,1,8.258,51.432L43.865,0l33.9,47.166c6.721,10.759,10.1,20.691,10.1,29.895a43.919,43.919,0,0,1-43.937,43.9Zm.082-105.41L15.625,56.579A35.37,35.37,0,0,0,10.241,86.4a34.5,34.5,0,0,0,25.784,24.747,35.406,35.406,0,0,0,29.831-6.867A34.888,34.888,0,0,0,78.9,77.061c0-7.494-2.883-15.871-8.567-24.893Z" transform="translate(0)"/>
      <ellipse id="Ellipse_1-10" data-name="Ellipse 1" cx="4.366" cy="9.841" rx="4.366" ry="9.841" transform="translate(31.314 53.951)"/>
      <ellipse id="Ellipse_2-10" data-name="Ellipse 2" cx="4.366" cy="9.841" rx="4.366" ry="9.841" transform="translate(48.485 53.951)"/>
      <path id="Path_2-10" data-name="Path 2" d="M46.008,113.352a23.865,23.865,0,0,1-22.837-17.18,3.638,3.638,0,1,1,6.985-2.01,16.5,16.5,0,0,0,31.7,0,3.638,3.638,0,1,1,6.995,2A23.865,23.865,0,0,1,46.008,113.352Z" transform="translate(-2.08 -8.27)"/>
    </g>
    <g id="noun_Water_2723321-11" data-name="noun_Water_2723321" transform="translate(922.787 488.166)">
      <path id="Path_1-11" data-name="Path 1" d="M37.4,103.125a38.939,38.939,0,0,1-8.312-.907A37.071,37.071,0,0,1,1.311,75.638a37.706,37.706,0,0,1,5.73-31.79L37.4,0l28.9,40.211C72.025,49.384,74.9,57.851,74.9,65.7a37.443,37.443,0,0,1-37.458,37.427Zm.07-89.866L13.321,48.236a30.154,30.154,0,0,0-4.59,25.425,29.41,29.41,0,0,0,21.982,21.1A30.185,30.185,0,0,0,56.145,88.9,29.743,29.743,0,0,0,67.264,65.7c0-6.389-2.458-13.53-7.3-21.222Z" transform="translate(0)" fill="#fff"/>
      <ellipse id="Ellipse_1-11" data-name="Ellipse 1" cx="3.722" cy="8.39" rx="3.722" ry="8.39" transform="translate(26.696 45.995)" fill="#fff"/>
      <ellipse id="Ellipse_2-11" data-name="Ellipse 2" cx="3.722" cy="8.39" rx="3.722" ry="8.39" transform="translate(41.335 45.995)" fill="#fff"/>
      <path id="Path_2-11" data-name="Path 2" d="M42.612,110.111a20.346,20.346,0,0,1-19.47-14.647A3.1,3.1,0,1,1,29.1,93.75a14.065,14.065,0,0,0,27.03,0,3.1,3.1,0,1,1,5.963,1.706A20.346,20.346,0,0,1,42.612,110.111Z" transform="translate(-5.162 -20.524)" fill="#fff"/>
    </g>
    <g id="noun_Water_2723321-12" data-name="noun_Water_2723321" transform="translate(928.197 495.614)">
      <path id="Path_1-12" data-name="Path 1" d="M31.995,88.228a33.314,33.314,0,0,1-7.111-.776A31.716,31.716,0,0,1,1.121,64.712a32.26,32.26,0,0,1,4.9-27.2L31.995,0,56.718,34.4c4.9,7.848,7.363,15.092,7.363,21.8A32.034,32.034,0,0,1,32.034,88.228Zm.06-76.885L11.4,41.268A25.8,25.8,0,0,0,7.47,63.02,25.162,25.162,0,0,0,26.276,81.07a25.825,25.825,0,0,0,21.759-5.008,25.447,25.447,0,0,0,9.513-19.855c0-5.466-2.1-11.576-6.249-18.156Z"/>
      <ellipse id="Ellipse_1-12" data-name="Ellipse 1" cx="3.184" cy="7.178" rx="3.184" ry="7.178" transform="translate(22.84 39.351)"/>
      <ellipse id="Ellipse_2-12" data-name="Ellipse 2" cx="3.184" cy="7.178" rx="3.184" ry="7.178" transform="translate(35.364 39.351)"/>
      <path id="Path_2-12" data-name="Path 2" d="M39.776,107.4A17.407,17.407,0,0,1,23.119,94.872a2.653,2.653,0,1,1,5.095-1.466,12.034,12.034,0,0,0,23.125,0,2.653,2.653,0,1,1,5.1,1.46A17.407,17.407,0,0,1,39.776,107.4Z" transform="translate(-7.735 -30.758)"/>
    </g>
    <g id="noun_Water_2723321-13" data-name="noun_Water_2723321" transform="translate(932.006 500.859)">
      <path id="Path_1-13" data-name="Path 1" d="M28.191,77.74a29.353,29.353,0,0,1-6.266-.684A27.946,27.946,0,0,1,.988,57.019a28.425,28.425,0,0,1,4.32-23.965L28.191,0,49.976,30.313c4.32,6.915,6.488,13.3,6.488,19.213A28.226,28.226,0,0,1,28.226,77.74ZM28.244,10l-18.2,26.367a22.732,22.732,0,0,0-3.46,19.166,22.171,22.171,0,0,0,16.571,15.9A22.755,22.755,0,0,0,42.325,67.02a22.422,22.422,0,0,0,8.382-17.494c0-4.816-1.853-10.2-5.506-16Z" transform="translate(0)" fill="#fff"/>
      <ellipse id="Ellipse_1-13" data-name="Ellipse 1" cx="2.806" cy="6.324" rx="2.806" ry="6.324" transform="translate(20.125 34.673)" fill="#fff"/>
      <ellipse id="Ellipse_2-13" data-name="Ellipse 2" cx="2.806" cy="6.324" rx="2.806" ry="6.324" transform="translate(31.161 34.673)" fill="#fff"/>
      <path id="Path_2-13" data-name="Path 2" d="M37.78,105.5A15.338,15.338,0,0,1,23.1,94.456a2.338,2.338,0,1,1,4.489-1.292,10.6,10.6,0,0,0,20.376,0,2.338,2.338,0,1,1,4.5,1.286A15.338,15.338,0,0,1,37.78,105.5Z" transform="translate(-9.547 -37.963)" fill="#fff"/>
    </g>
    <g id="noun_Water_2723321-14" data-name="noun_Water_2723321" transform="translate(936.155 506.571)">
      <path id="Path_1-14" data-name="Path 1" d="M24.048,66.314a25.039,25.039,0,0,1-5.345-.583A23.838,23.838,0,0,1,.843,48.639,24.247,24.247,0,0,1,4.528,28.2L24.048,0,42.631,25.858c3.685,5.9,5.535,11.343,5.535,16.389A24.078,24.078,0,0,1,24.078,66.314Zm.045-57.788L8.566,31.018A19.391,19.391,0,0,0,5.615,47.367,18.912,18.912,0,0,0,19.75,60.934,19.411,19.411,0,0,0,36.1,57.17a19.126,19.126,0,0,0,7.15-14.923c0-4.108-1.581-8.7-4.7-13.647Z" transform="translate(0)"/>
      <ellipse id="Ellipse_1-14" data-name="Ellipse 1" cx="2.393" cy="5.395" rx="2.393" ry="5.395" transform="translate(17.167 29.577)"/>
      <ellipse id="Ellipse_2-14" data-name="Ellipse 2" cx="2.393" cy="5.395" rx="2.393" ry="5.395" transform="translate(26.581 29.577)"/>
      <path id="Path_2-14" data-name="Path 2" d="M35.6,103.421A13.083,13.083,0,0,1,23.084,94a1.994,1.994,0,1,1,3.829-1.1,9.045,9.045,0,0,0,17.381,0A1.994,1.994,0,1,1,48.13,94,13.083,13.083,0,0,1,35.6,103.421Z" transform="translate(-11.521 -45.812)"/>
    </g>
    <g id="noun_Water_2723321-15" data-name="noun_Water_2723321" transform="translate(939.772 511.551)">
      <path id="Path_1-15" data-name="Path 1" d="M20.436,56.355a21.279,21.279,0,0,1-4.542-.5A20.258,20.258,0,0,1,.716,41.334,20.606,20.606,0,0,1,3.848,23.961L20.436,0,36.229,21.974c3.131,5.013,4.7,9.64,4.7,13.928a20.462,20.462,0,0,1-20.47,20.453Zm.038-49.109L7.28,26.36A16.479,16.479,0,0,0,4.771,40.254,16.072,16.072,0,0,0,16.784,51.783a16.5,16.5,0,0,0,13.9-3.2A16.254,16.254,0,0,0,36.758,35.9c0-3.491-1.343-7.394-3.991-11.6Z" fill="#fff"/>
      <ellipse id="Ellipse_1-15" data-name="Ellipse 1" cx="2.034" cy="4.585" rx="2.034" ry="4.585" transform="translate(14.589 25.135)" fill="#fff"/>
      <ellipse id="Ellipse_2-15" data-name="Ellipse 2" cx="2.034" cy="4.585" rx="2.034" ry="4.585" transform="translate(22.589 25.135)" fill="#fff"/>
      <path id="Path_2-15" data-name="Path 2" d="M33.708,101.611a11.118,11.118,0,0,1-10.64-8,1.695,1.695,0,1,1,3.254-.936,7.686,7.686,0,0,0,14.771,0,1.695,1.695,0,1,1,3.259.932A11.118,11.118,0,0,1,33.708,101.611Z" transform="translate(-13.242 -52.654)" fill="#fff"/>
    </g>
    <g id="noun_Water_2723321-16" data-name="noun_Water_2723321" transform="translate(942.428 515.207)">
      <path id="Path_1-16" data-name="Path 1" d="M17.785,49.042a18.517,18.517,0,0,1-3.953-.431A17.629,17.629,0,0,1,.624,35.97,17.932,17.932,0,0,1,3.349,20.852L17.785,0,31.527,19.123c2.725,4.362,4.093,8.389,4.093,12.12a17.806,17.806,0,0,1-17.814,17.8Zm.033-42.737L6.335,22.939A14.34,14.34,0,0,0,4.152,35.03,13.986,13.986,0,0,0,14.606,45.063,14.355,14.355,0,0,0,26.7,42.279a14.145,14.145,0,0,0,5.288-11.036c0-3.038-1.169-6.434-3.474-10.092Z"/>
      <ellipse id="Ellipse_1-16" data-name="Ellipse 1" cx="1.77" cy="3.99" rx="1.77" ry="3.99" transform="translate(12.696 21.874)"/>
      <ellipse id="Ellipse_2-16" data-name="Ellipse 2" cx="1.77" cy="3.99" rx="1.77" ry="3.99" transform="translate(19.658 21.874)"/>
      <path id="Path_2-16" data-name="Path 2" d="M32.316,100.282a9.676,9.676,0,0,1-9.259-6.965,1.475,1.475,0,1,1,2.832-.815,6.689,6.689,0,0,0,12.854,0,1.475,1.475,0,1,1,2.836.811A9.676,9.676,0,0,1,32.316,100.282Z" transform="translate(-14.506 -57.678)"/>
    </g>
    <g id="noun_Water_2723321-17" data-name="noun_Water_2723321" transform="translate(944.944 518.672)">
      <path id="Path_1-17" data-name="Path 1" d="M15.272,42.114a15.9,15.9,0,0,1-3.394-.37A15.139,15.139,0,0,1,.536,30.889a15.4,15.4,0,0,1,2.34-12.982L15.272,0l11.8,16.421c2.34,3.746,3.515,7.2,3.515,10.408a15.291,15.291,0,0,1-15.3,15.284Zm.028-36.7L5.44,19.7A12.314,12.314,0,0,0,3.566,30.081,12.01,12.01,0,0,0,12.543,38.7a12.327,12.327,0,0,0,10.386-2.391,12.146,12.146,0,0,0,4.541-9.477,16.668,16.668,0,0,0-2.983-8.667Z" fill="#fff"/>
      <ellipse id="Ellipse_1-17" data-name="Ellipse 1" cx="1.52" cy="3.426" rx="1.52" ry="3.426" transform="translate(10.902 18.783)" fill="#fff"/>
      <ellipse id="Ellipse_2-17" data-name="Ellipse 2" cx="1.52" cy="3.426" rx="1.52" ry="3.426" transform="translate(16.881 18.783)" fill="#fff"/>
      <path id="Path_2-17" data-name="Path 2" d="M31,99.023a8.309,8.309,0,0,1-7.951-5.981,1.267,1.267,0,1,1,2.432-.7,5.744,5.744,0,0,0,11.038,0,1.266,1.266,0,1,1,2.435.7A8.309,8.309,0,0,1,31,99.023Z" transform="translate(-15.703 -62.438)" fill="#fff"/>
    </g>
    <g id="noun_Water_2723321-18" data-name="noun_Water_2723321" transform="translate(946.962 521.451)">
      <path id="Path_1-18" data-name="Path 1" d="M13.257,36.555a13.8,13.8,0,0,1-2.946-.322A13.141,13.141,0,0,1,.465,26.812,13.366,13.366,0,0,1,2.5,15.543L13.257,0,23.5,14.254a17.3,17.3,0,0,1,3.051,9.034A13.273,13.273,0,0,1,13.273,36.555ZM13.281,4.7,4.722,17.1A10.689,10.689,0,0,0,3.1,26.111a10.425,10.425,0,0,0,7.792,7.479A10.7,10.7,0,0,0,19.9,31.515a10.543,10.543,0,0,0,3.941-8.226,14.468,14.468,0,0,0-2.589-7.523Z"/>
      <ellipse id="Ellipse_1-18" data-name="Ellipse 1" cx="1.319" cy="2.974" rx="1.319" ry="2.974" transform="translate(9.464 16.304)"/>
      <ellipse id="Ellipse_2-18" data-name="Ellipse 2" cx="1.319" cy="2.974" rx="1.319" ry="2.974" transform="translate(14.653 16.304)"/>
      <path id="Path_2-18" data-name="Path 2" d="M29.939,98.013a7.212,7.212,0,0,1-6.9-5.192,1.1,1.1,0,1,1,2.111-.607,4.986,4.986,0,0,0,9.581,0,1.1,1.1,0,1,1,2.114.6A7.212,7.212,0,0,1,29.939,98.013Z" transform="translate(-16.663 -66.256)"/>
    </g>
    <g id="noun_Water_2723321-19" data-name="noun_Water_2723321" transform="translate(948.907 524.128)">
      <path id="Path_1-19" data-name="Path 1" d="M11.315,31.2A11.781,11.781,0,0,1,8.8,30.926,11.216,11.216,0,0,1,.4,22.884a11.408,11.408,0,0,1,1.734-9.618L11.315,0l8.743,12.166a14.762,14.762,0,0,1,2.6,7.711A11.328,11.328,0,0,1,11.329,31.2Zm.021-27.189L4.031,14.594a9.123,9.123,0,0,0-1.389,7.692,8.9,8.9,0,0,0,6.651,6.383A9.132,9.132,0,0,0,16.987,26.9a9,9,0,0,0,3.364-7.021,12.349,12.349,0,0,0-2.21-6.421Z" transform="translate(0)" fill="#fff"/>
      <ellipse id="Ellipse_1-19" data-name="Ellipse 1" cx="1.126" cy="2.538" rx="1.126" ry="2.538" transform="translate(8.077 13.916)" fill="#fff"/>
      <ellipse id="Ellipse_2-19" data-name="Ellipse 2" cx="1.126" cy="2.538" rx="1.126" ry="2.538" transform="translate(12.506 13.916)" fill="#fff"/>
      <path id="Path_2-19" data-name="Path 2" d="M28.919,97.039a6.156,6.156,0,0,1-5.89-4.431.938.938,0,1,1,1.8-.518,4.255,4.255,0,0,0,8.178,0,.938.938,0,1,1,1.8.516A6.156,6.156,0,0,1,28.919,97.039Z" transform="translate(-17.588 -69.935)" fill="#fff"/>
    </g>
    <g id="noun_Water_2723321-20" data-name="noun_Water_2723321" transform="translate(950.551 526.392)">
      <path id="Path_1-20" data-name="Path 1" d="M9.673,26.673a10.071,10.071,0,0,1-2.15-.235A9.588,9.588,0,0,1,.339,19.564a9.753,9.753,0,0,1,1.482-8.223L9.673,0l7.474,10.4a12.62,12.62,0,0,1,2.226,6.592,9.685,9.685,0,0,1-9.689,9.681ZM9.691,3.429,3.446,12.476a7.8,7.8,0,0,0-1.187,6.576,7.607,7.607,0,0,0,5.686,5.457A7.807,7.807,0,0,0,14.522,23a7.693,7.693,0,0,0,2.876-6A10.557,10.557,0,0,0,15.509,11.5Z" transform="translate(0)"/>
      <ellipse id="Ellipse_1-20" data-name="Ellipse 1" cx="0.963" cy="2.17" rx="0.963" ry="2.17" transform="translate(6.905 11.897)"/>
      <ellipse id="Ellipse_2-20" data-name="Ellipse 2" cx="0.963" cy="2.17" rx="0.963" ry="2.17" transform="translate(10.692 11.897)"/>
      <path id="Path_2-20" data-name="Path 2" d="M28.057,96.217a5.262,5.262,0,0,1-5.036-3.788.8.8,0,1,1,1.54-.443,3.638,3.638,0,0,0,6.991,0,.8.8,0,1,1,1.542.441A5.262,5.262,0,0,1,28.057,96.217Z" transform="translate(-18.37 -73.045)"/>
    </g>
    <g id="noun_Water_2723321-21" data-name="noun_Water_2723321" transform="translate(951.87 528.208)">
      <path id="Path_1-21" data-name="Path 1" d="M8.356,23.041a8.7,8.7,0,0,1-1.857-.2A8.283,8.283,0,0,1,.293,16.9a8.425,8.425,0,0,1,1.28-7.1L8.356,0l6.457,8.984a10.9,10.9,0,0,1,1.923,5.694,8.366,8.366,0,0,1-8.369,8.362ZM8.372,2.962,2.977,10.777a6.737,6.737,0,0,0-1.026,5.681,6.571,6.571,0,0,0,4.911,4.714,6.744,6.744,0,0,0,5.682-1.308,6.645,6.645,0,0,0,2.484-5.185A9.119,9.119,0,0,0,13.4,9.937Z" fill="#fcfcfc"/>
      <ellipse id="Ellipse_1-21" data-name="Ellipse 1" cx="0.832" cy="1.874" rx="0.832" ry="1.874" transform="translate(5.965 10.277)" fill="#fcfcfc"/>
      <ellipse id="Ellipse_2-21" data-name="Ellipse 2" cx="0.832" cy="1.874" rx="0.832" ry="1.874" transform="translate(9.236 10.277)" fill="#fcfcfc"/>
      <path id="Path_2-21" data-name="Path 2" d="M27.366,95.557a4.546,4.546,0,0,1-4.35-3.273.693.693,0,1,1,1.33-.383,3.143,3.143,0,0,0,6.039,0,.693.693,0,1,1,1.332.381A4.546,4.546,0,0,1,27.366,95.557Z" transform="translate(-18.998 -75.54)" fill="#fcfcfc"/>
    </g>
    <g id="noun_Water_2723321-22" data-name="noun_Water_2723321" transform="translate(953.08 529.874)">
      <path id="Path_1-22" data-name="Path 1" d="M7.148,19.709a7.442,7.442,0,0,1-1.589-.173,7.085,7.085,0,0,1-5.308-5.08,7.206,7.206,0,0,1,1.1-6.076L7.148,0l5.523,7.685a9.325,9.325,0,0,1,1.645,4.871,7.156,7.156,0,0,1-7.159,7.153ZM7.161,2.534,2.546,9.219a5.763,5.763,0,0,0-.877,4.859,5.621,5.621,0,0,0,4.2,4.032,5.769,5.769,0,0,0,4.861-1.119,5.684,5.684,0,0,0,2.125-4.435A7.8,7.8,0,0,0,11.46,8.5Z" transform="translate(0)"/>
      <ellipse id="Ellipse_1-22" data-name="Ellipse 1" cx="0.711" cy="1.603" rx="0.711" ry="1.603" transform="translate(5.103 8.791)"/>
      <ellipse id="Ellipse_2-22" data-name="Ellipse 2" cx="0.711" cy="1.603" rx="0.711" ry="1.603" transform="translate(7.9 8.791)"/>
      <path id="Path_2-22" data-name="Path 2" d="M26.732,94.951a3.888,3.888,0,0,1-3.721-2.8.593.593,0,1,1,1.138-.327,2.688,2.688,0,0,0,5.166,0,.593.593,0,1,1,1.14.326A3.888,3.888,0,0,1,26.732,94.951Z" transform="translate(-19.574 -77.829)"/>
    </g>
    <g id="noun_Water_2723321-23" data-name="noun_Water_2723321" transform="translate(954.09 531.264)">
      <path id="Path_1-23" data-name="Path 1" d="M6.14,16.929a6.392,6.392,0,0,1-1.365-.149A6.086,6.086,0,0,1,.216,12.417,6.19,6.19,0,0,1,1.156,7.2L6.14,0l4.744,6.6A8.01,8.01,0,0,1,12.3,10.785a6.147,6.147,0,0,1-6.149,6.144ZM6.151,2.177,2.187,7.918a4.95,4.95,0,0,0-.754,4.174,4.828,4.828,0,0,0,3.609,3.463,4.955,4.955,0,0,0,4.175-.961,4.883,4.883,0,0,0,1.825-3.81A6.7,6.7,0,0,0,9.844,7.3Z" transform="translate(0)" fill="#fdfdfd"/>
      <ellipse id="Ellipse_1-23" data-name="Ellipse 1" cx="0.611" cy="1.377" rx="0.611" ry="1.377" transform="translate(4.383 7.551)" fill="#fdfdfd"/>
      <ellipse id="Ellipse_2-23" data-name="Ellipse 2" cx="0.611" cy="1.377" rx="0.611" ry="1.377" transform="translate(6.786 7.551)" fill="#fdfdfd"/>
      <path id="Path_2-23" data-name="Path 2" d="M26.2,94.446a3.34,3.34,0,0,1-3.2-2.4.509.509,0,1,1,.978-.281,2.309,2.309,0,0,0,4.437,0,.509.509,0,1,1,.979.28A3.34,3.34,0,0,1,26.2,94.446Z" transform="translate(-20.054 -79.739)" fill="#fdfdfd"/>
    </g>
    <g id="noun_Water_2723321-24" data-name="noun_Water_2723321" transform="translate(954.983 532.493)">
      <path id="Path_1-24" data-name="Path 1" d="M5.248,14.47a5.464,5.464,0,0,1-1.166-.127,5.2,5.2,0,0,1-3.9-3.73,5.291,5.291,0,0,1,.8-4.461L5.248,0,9.3,5.642A6.846,6.846,0,0,1,10.51,9.218,5.254,5.254,0,0,1,5.254,14.47Zm.01-12.61L1.87,6.768a4.231,4.231,0,0,0-.644,3.567A4.127,4.127,0,0,0,4.31,13.3a4.236,4.236,0,0,0,3.569-.821,4.173,4.173,0,0,0,1.56-3.256A5.727,5.727,0,0,0,8.414,6.241Z" transform="translate(0)" fill="#fdfdfd"/>
      <ellipse id="Ellipse_1-24" data-name="Ellipse 1" cx="0.522" cy="1.177" rx="0.522" ry="1.177" transform="translate(3.746 6.454)" fill="#fdfdfd"/>
      <ellipse id="Ellipse_2-24" data-name="Ellipse 2" cx="0.522" cy="1.177" rx="0.522" ry="1.177" transform="translate(5.801 6.454)" fill="#fdfdfd"/>
      <path id="Path_2-24" data-name="Path 2" d="M25.734,94A2.855,2.855,0,0,1,23,91.944a.435.435,0,1,1,.836-.24,1.974,1.974,0,0,0,3.793,0,.435.435,0,1,1,.837.239A2.855,2.855,0,0,1,25.734,94Z" transform="translate(-20.479 -81.428)" fill="#fdfdfd"/>
    </g>
    <g id="noun_Water_2723321-25" data-name="noun_Water_2723321" transform="translate(955.73 533.522)">
      <path id="Path_1-25" data-name="Path 1" d="M4.5,12.413a4.687,4.687,0,0,1-1-.109A4.462,4.462,0,0,1,.158,9.1a4.539,4.539,0,0,1,.69-3.827L4.5,0,7.98,4.84A5.873,5.873,0,0,1,9.016,7.908a4.507,4.507,0,0,1-4.509,4.505ZM4.51,1.6,1.6,5.806a3.63,3.63,0,0,0-.553,3.06A3.54,3.54,0,0,0,3.7,11.406a3.633,3.633,0,0,0,3.061-.7A3.58,3.58,0,0,0,8.1,7.908a4.913,4.913,0,0,0-.879-2.554Z" transform="translate(0)" fill="#fdfdfd"/>
      <ellipse id="Ellipse_1-25" data-name="Ellipse 1" cx="0.448" cy="1.01" rx="0.448" ry="1.01" transform="translate(3.214 5.536)" fill="#fdfdfd"/>
      <ellipse id="Ellipse_2-25" data-name="Ellipse 2" cx="0.448" cy="1.01" rx="0.448" ry="1.01" transform="translate(4.976 5.536)" fill="#fdfdfd"/>
      <path id="Path_2-25" data-name="Path 2" d="M25.343,93.625A2.449,2.449,0,0,1,23,91.862a.373.373,0,1,1,.717-.206,1.693,1.693,0,0,0,3.253,0,.373.373,0,1,1,.718.205A2.449,2.449,0,0,1,25.343,93.625Z" transform="translate(-20.834 -82.842)" fill="#fdfdfd"/>
    </g>
    <g id="noun_Water_2723321-26" data-name="noun_Water_2723321" transform="translate(956.303 534.312)">
      <path id="Path_1-26" data-name="Path 1" d="M3.929,10.833a4.09,4.09,0,0,1-.873-.1A3.894,3.894,0,0,1,.138,7.946a3.961,3.961,0,0,1,.6-3.34L3.929,0,6.965,4.224a5.126,5.126,0,0,1,.9,2.677,3.933,3.933,0,0,1-3.935,3.932Zm.007-9.441L1.4,5.067A3.168,3.168,0,0,0,.918,7.738,3.09,3.09,0,0,0,3.227,9.955,3.171,3.171,0,0,0,5.9,9.34,3.125,3.125,0,0,0,7.067,6.9,4.288,4.288,0,0,0,6.3,4.672Z" transform="translate(0)" fill="#fdfdfd"/>
      <ellipse id="Ellipse_1-26" data-name="Ellipse 1" cx="0.391" cy="0.881" rx="0.391" ry="0.881" transform="translate(2.805 4.832)" fill="#fdfdfd"/>
      <ellipse id="Ellipse_2-26" data-name="Ellipse 2" cx="0.391" cy="0.881" rx="0.391" ry="0.881" transform="translate(4.343 4.832)" fill="#fdfdfd"/>
      <path id="Path_2-26" data-name="Path 2" d="M25.042,93.338A2.137,2.137,0,0,1,23,91.8a.326.326,0,1,1,.626-.18,1.478,1.478,0,0,0,2.84,0,.326.326,0,1,1,.626.179A2.137,2.137,0,0,1,25.042,93.338Z" transform="translate(-21.107 -83.927)" fill="#fdfdfd"/>
    </g>
    <g id="noun_Water_2723321-27" data-name="noun_Water_2723321" transform="translate(956.303 534.312)">
      <path id="Path_1-27" data-name="Path 1" d="M3.929,10.833a4.09,4.09,0,0,1-.873-.1A3.894,3.894,0,0,1,.138,7.946a3.961,3.961,0,0,1,.6-3.34L3.929,0,6.965,4.224a5.126,5.126,0,0,1,.9,2.677,3.933,3.933,0,0,1-3.935,3.932Zm.007-9.441L1.4,5.067A3.168,3.168,0,0,0,.918,7.738,3.09,3.09,0,0,0,3.227,9.955,3.171,3.171,0,0,0,5.9,9.34,3.125,3.125,0,0,0,7.067,6.9,4.288,4.288,0,0,0,6.3,4.672Z" transform="translate(0)" fill="#fdfdfd"/>
      <ellipse id="Ellipse_1-27" data-name="Ellipse 1" cx="0.391" cy="0.881" rx="0.391" ry="0.881" transform="translate(2.805 4.832)" fill="#fdfdfd"/>
      <ellipse id="Ellipse_2-27" data-name="Ellipse 2" cx="0.391" cy="0.881" rx="0.391" ry="0.881" transform="translate(4.343 4.832)" fill="#fdfdfd"/>
      <path id="Path_2-27" data-name="Path 2" d="M25.042,93.338A2.137,2.137,0,0,1,23,91.8a.326.326,0,1,1,.626-.18,1.478,1.478,0,0,0,2.84,0,.326.326,0,1,1,.626.179A2.137,2.137,0,0,1,25.042,93.338Z" transform="translate(-21.107 -83.927)" fill="#fdfdfd"/>
    </g>
    <g id="noun_Water_2723321-28" data-name="noun_Water_2723321" transform="translate(956.792 534.985)">
      <path id="Path_1-28" data-name="Path 1" d="M3.441,9.487A3.582,3.582,0,0,1,2.676,9.4,3.41,3.41,0,0,1,.121,6.959,3.469,3.469,0,0,1,.648,4.034L3.441,0,6.1,3.7a4.489,4.489,0,0,1,.792,2.345A3.445,3.445,0,0,1,3.445,9.487ZM3.447,1.22,1.226,4.438A2.774,2.774,0,0,0,.8,6.777,2.706,2.706,0,0,0,2.826,8.718a2.777,2.777,0,0,0,2.34-.539A2.736,2.736,0,0,0,6.189,6.044a3.755,3.755,0,0,0-.672-1.952Z" transform="translate(0)" fill="#fdfdfd"/>
      <ellipse id="Ellipse_1-28" data-name="Ellipse 1" cx="0.342" cy="0.772" rx="0.342" ry="0.772" transform="translate(2.457 4.231)" fill="#fdfdfd"/>
      <ellipse id="Ellipse_2-28" data-name="Ellipse 2" cx="0.342" cy="0.772" rx="0.342" ry="0.772" transform="translate(3.803 4.231)" fill="#fdfdfd"/>
      <path id="Path_2-28" data-name="Path 2" d="M24.786,93.093a1.872,1.872,0,0,1-1.791-1.347.285.285,0,1,1,.548-.158,1.294,1.294,0,0,0,2.487,0,.285.285,0,1,1,.549.157A1.872,1.872,0,0,1,24.786,93.093Z" transform="translate(-21.34 -84.852)" fill="#fdfdfd"/>
    </g>
    <g id="noun_Water_2723321-29" data-name="noun_Water_2723321" transform="translate(957.128 535.447)">
      <path id="Path_1-29" data-name="Path 1" d="M3.106,8.564a3.233,3.233,0,0,1-.69-.075A3.078,3.078,0,0,1,.109,6.281a3.131,3.131,0,0,1,.476-2.64L3.106,0l2.4,3.339a4.052,4.052,0,0,1,.715,2.116A3.109,3.109,0,0,1,3.11,8.564ZM3.112,1.1l-2.005,2.9A2.5,2.5,0,0,0,.726,6.117,2.442,2.442,0,0,0,2.551,7.869a2.507,2.507,0,0,0,2.112-.486,2.47,2.47,0,0,0,.923-1.927A3.389,3.389,0,0,0,4.98,3.693Z" transform="translate(0)" fill="#fdfdfd"/>
      <ellipse id="Ellipse_1-29" data-name="Ellipse 1" cx="0.309" cy="0.697" rx="0.309" ry="0.697" transform="translate(2.218 3.82)" fill="#fdfdfd"/>
      <ellipse id="Ellipse_2-29" data-name="Ellipse 2" cx="0.309" cy="0.697" rx="0.309" ry="0.697" transform="translate(3.433 3.82)" fill="#fdfdfd"/>
      <path id="Path_2-29" data-name="Path 2" d="M24.61,92.926a1.69,1.69,0,0,1-1.617-1.216.258.258,0,1,1,.495-.142,1.168,1.168,0,0,0,2.245,0,.258.258,0,1,1,.5.142A1.69,1.69,0,0,1,24.61,92.926Z" transform="translate(-21.499 -85.486)" fill="#fdfdfd"/>
    </g>
    <g id="noun_Water_2723321-30" data-name="noun_Water_2723321" transform="translate(957.517 535.982)">
      <path id="Path_1-30" data-name="Path 1" d="M2.718,7.492a2.829,2.829,0,0,1-.6-.066A2.693,2.693,0,0,1,.1,5.5a2.74,2.74,0,0,1,.416-2.31L2.718,0l2.1,2.922a3.545,3.545,0,0,1,.625,1.852A2.72,2.72,0,0,1,2.721,7.492ZM2.723.963.968,3.5A2.191,2.191,0,0,0,.635,5.352a2.137,2.137,0,0,0,1.6,1.533A2.193,2.193,0,0,0,4.08,6.459a2.161,2.161,0,0,0,.808-1.686,2.965,2.965,0,0,0-.531-1.542Z" transform="translate(0)" fill="#fdfdfd"/>
      <ellipse id="Ellipse_1-30" data-name="Ellipse 1" cx="0.27" cy="0.61" rx="0.27" ry="0.61" transform="translate(1.94 3.342)" fill="#fdfdfd"/>
      <ellipse id="Ellipse_2-30" data-name="Ellipse 2" cx="0.27" cy="0.61" rx="0.27" ry="0.61" transform="translate(3.004 3.342)" fill="#fdfdfd"/>
      <path id="Path_2-30" data-name="Path 2" d="M24.406,92.731a1.478,1.478,0,0,1-1.415-1.064.225.225,0,1,1,.433-.125,1.022,1.022,0,0,0,1.964,0,.225.225,0,1,1,.433.124A1.478,1.478,0,0,1,24.406,92.731Z" transform="translate(-21.684 -86.222)" fill="#fdfdfd"/>
    </g>
    <g id="noun_Water_2723321-31" data-name="noun_Water_2723321" transform="translate(957.517 535.982)">
      <path id="Path_1-31" data-name="Path 1" d="M2.718,7.492a2.829,2.829,0,0,1-.6-.066A2.693,2.693,0,0,1,.1,5.5a2.74,2.74,0,0,1,.416-2.31L2.718,0l2.1,2.922a3.545,3.545,0,0,1,.625,1.852A2.72,2.72,0,0,1,2.721,7.492ZM2.723.963.968,3.5A2.191,2.191,0,0,0,.635,5.352a2.137,2.137,0,0,0,1.6,1.533A2.193,2.193,0,0,0,4.08,6.459a2.161,2.161,0,0,0,.808-1.686,2.965,2.965,0,0,0-.531-1.542Z" transform="translate(0)" fill="#fdfdfd"/>
      <ellipse id="Ellipse_1-31" data-name="Ellipse 1" cx="0.27" cy="0.61" rx="0.27" ry="0.61" transform="translate(1.94 3.342)" fill="#fdfdfd"/>
      <ellipse id="Ellipse_2-31" data-name="Ellipse 2" cx="0.27" cy="0.61" rx="0.27" ry="0.61" transform="translate(3.004 3.342)" fill="#fdfdfd"/>
      <path id="Path_2-31" data-name="Path 2" d="M24.406,92.731a1.478,1.478,0,0,1-1.415-1.064.225.225,0,1,1,.433-.125,1.022,1.022,0,0,0,1.964,0,.225.225,0,1,1,.433.124A1.478,1.478,0,0,1,24.406,92.731Z" transform="translate(-21.684 -86.222)" fill="#fdfdfd"/>
    </g>
    <g id="noun_Water_2723321-32" data-name="noun_Water_2723321" transform="translate(958.022 536.678)">
      <path id="Path_1-32" data-name="Path 1" d="M2.213,6.1a2.3,2.3,0,0,1-.492-.054A2.193,2.193,0,0,1,.078,4.475,2.231,2.231,0,0,1,.417,2.594L2.213,0l1.71,2.379a2.887,2.887,0,0,1,.509,1.508A2.215,2.215,0,0,1,2.216,6.1Zm0-5.317L.789,2.854a1.784,1.784,0,0,0-.272,1.5,1.74,1.74,0,0,0,1.3,1.248,1.786,1.786,0,0,0,1.5-.346A1.76,1.76,0,0,0,3.98,3.887a2.415,2.415,0,0,0-.432-1.256Z" fill="#fdfdfd"/>
      <ellipse id="Ellipse_1-32" data-name="Ellipse 1" cx="0.22" cy="0.496" rx="0.22" ry="0.496" transform="translate(1.58 2.721)" fill="#fdfdfd"/>
      <ellipse id="Ellipse_2-32" data-name="Ellipse 2" cx="0.22" cy="0.496" rx="0.22" ry="0.496" transform="translate(2.446 2.721)" fill="#fdfdfd"/>
      <path id="Path_2-32" data-name="Path 2" d="M24.141,92.478a1.2,1.2,0,0,1-1.152-.867.183.183,0,1,1,.352-.1.832.832,0,0,0,1.6,0,.183.183,0,1,1,.353.1A1.2,1.2,0,0,1,24.141,92.478Z" transform="translate(-21.925 -87.178)" fill="#fdfdfd"/>
    </g>
    <g id="noun_Water_2723321-33" data-name="noun_Water_2723321" transform="translate(958.323 537.092)">
      <path id="Path_1-33" data-name="Path 1" d="M1.913,5.273a1.991,1.991,0,0,1-.425-.046A1.9,1.9,0,0,1,.068,3.868,1.928,1.928,0,0,1,.361,2.242L1.913,0,3.39,2.056a2.5,2.5,0,0,1,.44,1.3A1.915,1.915,0,0,1,1.915,5.273Zm0-4.6L.682,2.466a1.542,1.542,0,0,0-.235,1.3A1.5,1.5,0,0,0,1.571,4.845a1.543,1.543,0,0,0,1.3-.3A1.521,1.521,0,0,0,3.44,3.359a2.087,2.087,0,0,0-.373-1.085Z" transform="translate(0)" fill="#fdfdfd"/>
      <ellipse id="Ellipse_1-33" data-name="Ellipse 1" cx="0.19" cy="0.429" rx="0.19" ry="0.429" transform="translate(1.366 2.352)" fill="#fdfdfd"/>
      <ellipse id="Ellipse_2-33" data-name="Ellipse 2" cx="0.19" cy="0.429" rx="0.19" ry="0.429" transform="translate(2.114 2.352)" fill="#fdfdfd"/>
      <path id="Path_2-33" data-name="Path 2" d="M23.983,92.328a1.04,1.04,0,0,1-1-.749.159.159,0,1,1,.3-.088.719.719,0,0,0,1.382,0,.159.159,0,1,1,.3.087A1.04,1.04,0,0,1,23.983,92.328Z" transform="translate(-22.068 -87.747)" fill="#fdfdfd"/>
    </g>
    <g id="noun_Water_2723321-34" data-name="noun_Water_2723321" transform="translate(958.554 537.411)">
      <path id="Path_1-34" data-name="Path 1" d="M1.682,4.635a1.75,1.75,0,0,1-.374-.041A1.666,1.666,0,0,1,.06,3.4,1.7,1.7,0,0,1,.317,1.971L1.682,0l1.3,1.807a2.193,2.193,0,0,1,.387,1.146A1.683,1.683,0,0,1,1.684,4.635ZM1.685.6.6,2.168A1.355,1.355,0,0,0,.393,3.311a1.322,1.322,0,0,0,.988.948A1.357,1.357,0,0,0,2.524,4a1.337,1.337,0,0,0,.5-1.043A1.835,1.835,0,0,0,2.7,2Z" fill="#fdfdfd"/>
      <ellipse id="Ellipse_1-34" data-name="Ellipse 1" cx="0.167" cy="0.377" rx="0.167" ry="0.377" transform="translate(1.201 2.067)" fill="#fdfdfd"/>
      <ellipse id="Ellipse_2-34" data-name="Ellipse 2" cx="0.167" cy="0.377" rx="0.167" ry="0.377" transform="translate(1.859 2.067)" fill="#fdfdfd"/>
      <path id="Path_2-34" data-name="Path 2" d="M23.862,92.212a.914.914,0,0,1-.875-.658.139.139,0,1,1,.268-.077.632.632,0,0,0,1.215,0,.139.139,0,1,1,.268.077A.914.914,0,0,1,23.862,92.212Z" transform="translate(-22.178 -88.185)" fill="#fdfdfd"/>
    </g>
    <g id="noun_Water_2723321-35" data-name="noun_Water_2723321" transform="translate(958.814 537.768)">
      <path id="Path_1-35" data-name="Path 1" d="M1.422,3.92a1.48,1.48,0,0,1-.316-.034A1.409,1.409,0,0,1,.05,2.875,1.433,1.433,0,0,1,.268,1.667L1.422,0l1.1,1.528a1.855,1.855,0,0,1,.327.969A1.423,1.423,0,0,1,1.424,3.92ZM1.425.5.507,1.833A1.146,1.146,0,0,0,.332,2.8a1.118,1.118,0,0,0,.836.8,1.147,1.147,0,0,0,.967-.223A1.131,1.131,0,0,0,2.557,2.5,1.551,1.551,0,0,0,2.28,1.69Z" transform="translate(0)" fill="#fdfdfd"/>
      <ellipse id="Ellipse_1-35" data-name="Ellipse 1" cx="0.141" cy="0.319" rx="0.141" ry="0.319" transform="translate(1.015 1.748)" fill="#fdfdfd"/>
      <ellipse id="Ellipse_2-35" data-name="Ellipse 2" cx="0.141" cy="0.319" rx="0.141" ry="0.319" transform="translate(1.572 1.748)" fill="#fdfdfd"/>
      <path id="Path_2-35" data-name="Path 2" d="M23.726,92.082a.773.773,0,0,1-.74-.557.118.118,0,1,1,.226-.065.535.535,0,0,0,1.027,0,.118.118,0,1,1,.227.065A.773.773,0,0,1,23.726,92.082Z" transform="translate(-22.302 -88.677)" fill="#fdfdfd"/>
    </g>
    <g id="noun_Water_2723321-36" data-name="noun_Water_2723321" transform="translate(959.042 538.082)">
      <path id="Path_1-36" data-name="Path 1" d="M1.195,3.293a1.243,1.243,0,0,1-.265-.029,1.184,1.184,0,0,1-.887-.849A1.2,1.2,0,0,1,.225,1.4L1.195,0l.923,1.284a1.558,1.558,0,0,1,.275.814,1.2,1.2,0,0,1-1.2,1.2ZM1.2.423.426,1.54a.963.963,0,0,0-.147.812.939.939,0,0,0,.7.674.964.964,0,0,0,.812-.187A.95.95,0,0,0,2.148,2.1a1.3,1.3,0,0,0-.233-.678Z" transform="translate(0)" fill="#fdfdfd"/>
      <ellipse id="Ellipse_1-36" data-name="Ellipse 1" cx="0.119" cy="0.268" rx="0.119" ry="0.268" transform="translate(0.853 1.469)" fill="#fdfdfd"/>
      <ellipse id="Ellipse_2-36" data-name="Ellipse 2" cx="0.119" cy="0.268" rx="0.119" ry="0.268" transform="translate(1.32 1.469)" fill="#fdfdfd"/>
      <path id="Path_2-36" data-name="Path 2" d="M23.606,91.968a.65.65,0,0,1-.622-.468.1.1,0,1,1,.19-.055.449.449,0,0,0,.863,0,.1.1,0,1,1,.19.054A.65.65,0,0,1,23.606,91.968Z" transform="translate(-22.41 -89.107)" fill="#fdfdfd"/>
    </g>
    <g id="noun_Water_2723321-37" data-name="noun_Water_2723321" transform="translate(959.302 538.44)">
      <path id="Path_1-37" data-name="Path 1" d="M.935,2.577a.973.973,0,0,1-.208-.023A.927.927,0,0,1,.033,1.89.942.942,0,0,1,.177,1.1L.935,0l.722,1.005a1.219,1.219,0,0,1,.215.637.936.936,0,0,1-.936.935Zm0-2.246-.6.874a.754.754,0,0,0-.115.635.735.735,0,0,0,.549.527A.754.754,0,0,0,1.4,2.222a.743.743,0,0,0,.278-.58,1.02,1.02,0,0,0-.183-.53Z" transform="translate(0)" fill="#fdfdfd"/>
      <ellipse id="Ellipse_1-37" data-name="Ellipse 1" cx="0.093" cy="0.21" rx="0.093" ry="0.21" transform="translate(0.668 1.15)" fill="#fdfdfd"/>
      <ellipse id="Ellipse_2-37" data-name="Ellipse 2" cx="0.093" cy="0.21" rx="0.093" ry="0.21" transform="translate(1.034 1.15)" fill="#fdfdfd"/>
      <path id="Path_2-37" data-name="Path 2" d="M23.47,91.838a.508.508,0,0,1-.487-.366.078.078,0,1,1,.149-.043.352.352,0,0,0,.676,0,.078.078,0,1,1,.149.043A.508.508,0,0,1,23.47,91.838Z" transform="translate(-22.533 -89.599)" fill="#fdfdfd"/>
    </g>
    <g id="noun_Water_2723321-38" data-name="noun_Water_2723321" transform="translate(959.479 538.684)">
      <path id="Path_1-38" data-name="Path 1" d="M.758,2.088A.788.788,0,0,1,.59,2.07a.751.751,0,0,1-.562-.538A.763.763,0,0,1,.143.888L.758,0l.585.814a.988.988,0,0,1,.174.516.758.758,0,0,1-.758.758Zm0-1.82L.27.977a.611.611,0,0,0-.093.515.6.6,0,0,0,.445.427A.611.611,0,0,0,1.137,1.8a.6.6,0,0,0,.225-.47A.826.826,0,0,0,1.215.9Z" transform="translate(0)" fill="#fdfdfd"/>
      <ellipse id="Ellipse_1-38" data-name="Ellipse 1" cx="0.075" cy="0.17" rx="0.075" ry="0.17" transform="translate(0.541 0.931)" fill="#fdfdfd"/>
      <ellipse id="Ellipse_2-38" data-name="Ellipse 2" cx="0.075" cy="0.17" rx="0.075" ry="0.17" transform="translate(0.838 0.931)" fill="#fdfdfd"/>
      <path id="Path_2-38" data-name="Path 2" d="M23.377,91.749a.412.412,0,0,1-.394-.3.063.063,0,1,1,.121-.035.285.285,0,0,0,.547,0,.063.063,0,1,1,.121.035A.412.412,0,0,1,23.377,91.749Z" transform="translate(-22.618 -89.935)" fill="#fdfdfd"/>
    </g>
    <g id="noun_Water_2723321-39" data-name="noun_Water_2723321" transform="translate(959.632 538.894)">
      <path id="Path_1-39" data-name="Path 1" d="M.606,1.668a.63.63,0,0,1-.134-.015.6.6,0,0,1-.449-.43A.61.61,0,0,1,.115.709L.606,0l.468.651a.789.789,0,0,1,.139.412.606.606,0,0,1-.606.605Zm0-1.454L.216.78a.488.488,0,0,0-.074.411A.476.476,0,0,0,.5,1.533a.488.488,0,0,0,.411-.095.481.481,0,0,0,.18-.375A.66.66,0,0,0,.971.72Z" transform="translate(0)" fill="#fdfdfd"/>
      <ellipse id="Ellipse_1-39" data-name="Ellipse 1" cx="0.06" cy="0.136" rx="0.06" ry="0.136" transform="translate(0.433 0.744)" fill="#fdfdfd"/>
      <ellipse id="Ellipse_2-39" data-name="Ellipse 2" cx="0.06" cy="0.136" rx="0.06" ry="0.136" transform="translate(0.669 0.744)" fill="#fdfdfd"/>
      <path id="Path_2-39" data-name="Path 2" d="M23.3,91.672a.329.329,0,0,1-.315-.237.05.05,0,1,1,.1-.028.228.228,0,0,0,.437,0,.05.05,0,1,1,.1.028A.329.329,0,0,1,23.3,91.672Z" transform="translate(-22.69 -90.223)" fill="#fdfdfd"/>
    </g>
    <g id="noun_Water_2723321-40" data-name="noun_Water_2723321" transform="translate(959.73 539.029)">
      <path id="Path_1-40" data-name="Path 1" d="M.508,1.4a.528.528,0,0,1-.113-.012.5.5,0,0,1-.376-.36A.511.511,0,0,1,.1.594L.508,0,.9.545A.661.661,0,0,1,1.016.89.508.508,0,0,1,.508,1.4ZM.508.18.181.654A.409.409,0,0,0,.119,1a.4.4,0,0,0,.3.286.409.409,0,0,0,.345-.079A.4.4,0,0,0,.912.89.553.553,0,0,0,.813.6Z" transform="translate(0)" fill="#fdfdfd"/>
      <ellipse id="Ellipse_1-40" data-name="Ellipse 1" cx="0.05" cy="0.114" rx="0.05" ry="0.114" transform="translate(0.362 0.623)" fill="#fdfdfd"/>
      <ellipse id="Ellipse_2-40" data-name="Ellipse 2" cx="0.05" cy="0.114" rx="0.05" ry="0.114" transform="translate(0.561 0.623)" fill="#fdfdfd"/>
      <path id="Path_2-40" data-name="Path 2" d="M23.245,91.623a.276.276,0,0,1-.264-.2.042.042,0,1,1,.081-.023.191.191,0,0,0,.366,0,.042.042,0,1,1,.081.023A.276.276,0,0,1,23.245,91.623Z" transform="translate(-22.737 -90.409)" fill="#fdfdfd"/>
    </g>
    <g id="noun_Water_2723321-41" data-name="noun_Water_2723321" transform="translate(959.73 539.029)">
      <path id="Path_1-41" data-name="Path 1" d="M.507,1.4a.528.528,0,0,1-.113-.012.5.5,0,0,1-.376-.36A.511.511,0,0,1,.1.594L.507,0,.9.545A.661.661,0,0,1,1.016.89.507.507,0,0,1,.508,1.4ZM.508.18.181.654A.409.409,0,0,0,.119,1a.4.4,0,0,0,.3.286A.409.409,0,0,0,.762,1.2.4.4,0,0,0,.912.89.553.553,0,0,0,.813.6Z" transform="translate(0)" fill="#fdfdfd"/>
      <ellipse id="Ellipse_1-41" data-name="Ellipse 1" cx="0.05" cy="0.114" rx="0.05" ry="0.114" transform="translate(0.362 0.623)" fill="#fdfdfd"/>
      <ellipse id="Ellipse_2-41" data-name="Ellipse 2" cx="0.05" cy="0.114" rx="0.05" ry="0.114" transform="translate(0.561 0.623)" fill="#fdfdfd"/>
      <path id="Path_2-41" data-name="Path 2" d="M23.245,91.623a.276.276,0,0,1-.264-.2.042.042,0,1,1,.081-.023.191.191,0,0,0,.366,0,.042.042,0,1,1,.081.023A.276.276,0,0,1,23.245,91.623Z" transform="translate(-22.737 -90.409)" fill="#fdfdfd"/>
    </g>
    <g id="noun_Water_2723321-42" data-name="noun_Water_2723321" transform="translate(959.73 539.029)">
      <path id="Path_1-42" data-name="Path 1" d="M.507,1.4a.528.528,0,0,1-.113-.012.5.5,0,0,1-.376-.36A.511.511,0,0,1,.1.594L.507,0,.9.545A.661.661,0,0,1,1.016.89.507.507,0,0,1,.508,1.4ZM.508.18.181.654A.409.409,0,0,0,.119,1a.4.4,0,0,0,.3.286A.409.409,0,0,0,.762,1.2.4.4,0,0,0,.912.89.553.553,0,0,0,.813.6Z" transform="translate(0)" fill="#fdfdfd"/>
      <ellipse id="Ellipse_1-42" data-name="Ellipse 1" cx="0.05" cy="0.114" rx="0.05" ry="0.114" transform="translate(0.362 0.623)" fill="#fdfdfd"/>
      <ellipse id="Ellipse_2-42" data-name="Ellipse 2" cx="0.05" cy="0.114" rx="0.05" ry="0.114" transform="translate(0.561 0.623)" fill="#fdfdfd"/>
      <path id="Path_2-42" data-name="Path 2" d="M23.245,91.623a.276.276,0,0,1-.264-.2.042.042,0,1,1,.081-.023.191.191,0,0,0,.366,0,.042.042,0,1,1,.081.023A.276.276,0,0,1,23.245,91.623Z" transform="translate(-22.737 -90.409)" fill="#fdfdfd"/>
    </g>
    <g id="noun_Water_2723321-43" data-name="noun_Water_2723321" transform="translate(959.832 539.17)">
      <path id="Path_1-43" data-name="Path 1" d="M.405,1.116a.421.421,0,0,1-.09-.01.4.4,0,0,1-.3-.288A.408.408,0,0,1,.077.475L.405,0,.718.435A.528.528,0,0,1,.811.711a.405.405,0,0,1-.405.405Zm0-.972L.145.522A.326.326,0,0,0,.1.8a.318.318,0,0,0,.238.228A.327.327,0,0,0,.608.962.322.322,0,0,0,.729.711.442.442,0,0,0,.65.481Z" transform="translate(0)" fill="#fdfdfd"/>
      <ellipse id="Ellipse_1-43" data-name="Ellipse 1" cx="0.04" cy="0.091" rx="0.04" ry="0.091" transform="translate(0.29 0.498)" fill="#fdfdfd"/>
      <ellipse id="Ellipse_2-43" data-name="Ellipse 2" cx="0.04" cy="0.091" rx="0.04" ry="0.091" transform="translate(0.448 0.498)" fill="#fdfdfd"/>
      <path id="Path_2-43" data-name="Path 2" d="M23.192,91.572a.22.22,0,0,1-.211-.158.034.034,0,1,1,.064-.019.152.152,0,0,0,.293,0,.034.034,0,0,1,.065.018A.22.22,0,0,1,23.192,91.572Z" transform="translate(-22.786 -90.603)" fill="#fdfdfd"/>
    </g>
    <g id="noun_Water_2723321-44" data-name="noun_Water_2723321" transform="translate(959.832 539.17)">
      <g id="noun_Water_2723321-45" data-name="noun_Water_2723321" transform="translate(-174.833 -240.713)">
        <path id="Path_1-44" data-name="Path 1" d="M174.984,482.543A182.207,182.207,0,0,1,136.09,478.3,173.462,173.462,0,0,1,6.13,353.925,176.437,176.437,0,0,1,32.942,205.171L174.984,0,310.2,188.155c26.812,42.921,40.272,82.54,40.272,119.257A175.2,175.2,0,0,1,175.2,482.543Zm.327-420.5L62.33,225.707A141.1,141.1,0,0,0,40.851,344.674,137.615,137.615,0,0,0,143.709,443.4a141.243,141.243,0,0,0,119-27.392,139.175,139.175,0,0,0,52.028-108.59c0-29.9-11.5-63.311-34.177-99.3Z" transform="translate(0)" fill="#fff" stroke="#000" stroke-width="7"/>
        <ellipse id="Ellipse_1-44" data-name="Ellipse 1" cx="17.415" cy="39.257" rx="17.415" ry="39.257" transform="translate(124.915 215.221)" fill="#fff" stroke="#000" stroke-width="7"/>
        <ellipse id="Ellipse_2-44" data-name="Ellipse 2" cx="17.415" cy="39.257" rx="17.415" ry="39.257" transform="translate(193.415 215.221)" fill="#fff" stroke="#000" stroke-width="7"/>
        <path id="Path_2-44" data-name="Path 2" d="M114.846,179.064a95.2,95.2,0,0,1-91.1-68.536,14.513,14.513,0,1,1,27.864-8.018,65.815,65.815,0,0,0,126.477,0,14.511,14.511,0,1,1,27.9,7.983,95.2,95.2,0,0,1-91.142,68.571Z" transform="translate(60.391 240.132)" fill="#fff" stroke="#000" stroke-width="7"/>
      </g>
      <path id="Path_1-45" data-name="Path 1" d="M.405,1.116a.421.421,0,0,1-.09-.01.4.4,0,0,1-.3-.288A.408.408,0,0,1,.077.475L.405,0,.718.435A.528.528,0,0,1,.811.711a.405.405,0,0,1-.405.405Zm0-.972L.145.522A.326.326,0,0,0,.1.8a.318.318,0,0,0,.238.228A.327.327,0,0,0,.608.962.322.322,0,0,0,.729.711.442.442,0,0,0,.65.481Z" transform="translate(0)" fill="#fdfdfd"/>
      <ellipse id="Ellipse_1-45" data-name="Ellipse 1" cx="0.04" cy="0.091" rx="0.04" ry="0.091" transform="translate(0.29 0.498)" fill="#fdfdfd"/>
      <ellipse id="Ellipse_2-45" data-name="Ellipse 2" cx="0.04" cy="0.091" rx="0.04" ry="0.091" transform="translate(0.448 0.498)" fill="#fdfdfd"/>
      <path id="Path_2-45" data-name="Path 2" d="M23.192,91.572a.22.22,0,0,1-.211-.158.034.034,0,1,1,.064-.019.152.152,0,0,0,.293,0,.034.034,0,0,1,.065.018A.22.22,0,0,1,23.192,91.572Z" transform="translate(-22.786 -90.603)" fill="#fdfdfd"/>
    </g>
    <circle id="Ellipse_3" data-name="Ellipse 3" cx="1" cy="1" r="1" transform="translate(959 539)" fill="#fff"/>
  </g>
</svg>
